<svg xmlns="http://www.w3.org/2000/svg" viewBox="0 0 32 32">
  <rect width="32" height="32" rx="6" fill="#1E3A5F"/>
  <!-- Egg -->
  <path d="M16,3.5 C13,3.5 9.5,8 9.5,14.5 C9.5,19.5 12,24 16,24 C20,24 22.5,19.5 22.5,14.5 C22.5,8 19,3.5 16,3.5Z" fill="#FFF"/>
  <!-- Chicken body -->
  <path d="M10.8,17 Q12,14.5 14.5,13.5 Q16,13 17,13.2 Q19,13.8 21,16 Q22,17.5 22,19.5 Q22,22 19.5,23 C17.5,24 13,23.5 11.5,21.5 Q10.5,19.5 10.8,17Z" fill="#F5A623"/>
  <!-- Scallops -->
  <path d="M12,21 Q13,20 14,21 Q15,20 16,21 Q17,20 18,21 Q19,20 20,21 Q20.5,22 19,22.5 Q16,24 13,22.5 Q12,22 12,21Z" fill="#E8912D"/>
  <!-- Head/neck -->
  <path d="M13.5,13.8 Q13,11.5 13.2,9.5 Q13.5,7.5 15,6.8 Q16.3,6 17.5,6.8 Q18.5,7.5 18.5,9.5 Q18.5,11 17.5,13 Q17,13.5 16,13.5Z" fill="#F5A623"/>
  <!-- Comb -->
  <path d="M15,6.8 Q14.3,5 15.3,4.5 Q15.8,4.2 16,4.8 Q16.3,3.8 17,4.2 Q18,3.6 18.3,4.5 Q18.8,5.2 17.8,6.5 Q17,7 16,6.5Z" fill="#E74C3C"/>
  <!-- Beak -->
  <path d="M12.8,10 L11.2,10.7 L12.8,11.2Z" fill="#E8912D"/>
  <!-- Wattle -->
  <path d="M13.3,11.5 Q13.8,12.5 13.4,13.2 Q13,13.3 12.8,12.8 Q12.5,12 13.3,11.5Z" fill="#E74C3C"/>
  <!-- Eye -->
  <circle cx="15.5" cy="9" r="1.5" fill="#FFF"/>
  <circle cx="15.5" cy="9" r="1" fill="#2C3E50"/>
  <circle cx="15.8" cy="8.7" r=".4" fill="#FFF"/>
</svg>
