<svg xmlns="http://www.w3.org/2000/svg" viewBox="0 0 512 512">
  <!-- Background -->
  <rect width="512" height="512" rx="80" fill="#1E3A5F"/>

  <!-- White egg shape -->
  <path d="M256,62 C206,62 152,140 152,240 C152,320 198,388 256,388 C314,388 360,320 360,240 C360,140 306,62 256,62Z" fill="#FFFFFF"/>

  <!-- Chicken body/chest (orange, bottom of egg area) -->
  <path d="M170,280 Q180,240 220,220 Q240,212 256,215 Q290,220 320,250 Q345,275 348,310 Q350,340 330,360 C310,380 200,380 178,350 Q165,330 170,280Z" fill="#F5A623"/>

  <!-- Scalloped feathers at bottom -->
  <path d="M185,345 Q195,335 208,345 Q218,335 230,345 Q240,335 252,345 Q262,335 274,345 Q284,335 296,345 Q306,335 318,345 Q325,355 310,365 Q270,385 200,365 Q185,358 185,345Z" fill="#E8912D"/>

  <!-- Chicken neck/head shape -->
  <path d="M210,225 Q200,190 205,155 Q210,125 230,110 Q250,98 270,108 Q288,120 290,148 Q292,175 280,210 Q268,225 250,225Z" fill="#F5A623"/>

  <!-- Comb (red, 3 lobes) -->
  <path d="M230,110 Q222,80 238,72 Q245,68 250,78 Q255,62 265,70 Q278,60 285,75 Q292,88 280,105 Q268,112 250,108 Q238,108 230,110Z" fill="#E74C3C"/>

  <!-- Beak -->
  <path d="M200,168 L175,178 L200,186Z" fill="#E8912D"/>

  <!-- Wattle (red drop below beak) -->
  <path d="M208,190 Q215,205 210,215 Q204,218 200,210 Q195,200 208,190Z" fill="#E74C3C"/>

  <!-- Eye - outer ring -->
  <circle cx="242" cy="148" r="18" fill="#FFFFFF"/>
  <!-- Eye - dark ring -->
  <circle cx="242" cy="148" r="14" fill="#2C3E50"/>
  <!-- Eye - pupil -->
  <circle cx="242" cy="148" r="8" fill="#1A1A2E"/>
  <!-- Eye - highlight -->
  <circle cx="247" cy="143" r="4" fill="#FFFFFF"/>

  <!-- Brand text: EGGlogU -->
  <text x="256" y="440" text-anchor="middle" font-family="'Segoe UI',Arial,Helvetica,sans-serif" font-weight="800" font-size="56" fill="#FFFFFF" letter-spacing="2">EGG<tspan font-weight="400">log</tspan>U</text>
  <!-- 360 in orange -->
  <text x="256" y="480" text-anchor="middle" font-family="'Segoe UI',Arial,Helvetica,sans-serif" font-weight="700" font-size="36" fill="#F5A623" letter-spacing="4">360</text>
</svg>
